<svg xmlns="http://www.w3.org/2000/svg" viewBox="0 0 486 98"><g fill="#00144B"><path d="M42.4 73.5c-10.3 0-18.6-8.3-18.6-18.6s8.3-18.6 18.6-18.6S61 44.6 61 54.9s-8.3 18.6-18.6 18.6m0-31.3c-7 0-12.7 5.7-12.7 12.7s5.7 12.7 12.7 12.7 12.7-5.7 12.7-12.7-5.7-12.7-12.7-12.7"/><path d="M69.8 24.6c-1.6 0-2.9 1.3-2.9 2.9V37c-5.5-7.5-14.4-12.4-24.5-12.4-16.7 0-30.3 13.6-30.3 30.3s13.6 30.3 30.3 30.3 18.9-4.9 24.5-12.4v9.5c0 1.6 1.3 2.9 2.9 2.9s2.9-1.3 2.9-2.9V27.5c0-1.6-1.3-2.9-2.9-2.9M42.4 79.4c-13.5 0-24.5-11-24.5-24.5s11-24.5 24.5-24.5 24.5 11 24.5 24.5-11 24.5-24.5 24.5m140.8 5.9c-1.5 0-2.8-1.1-2.9-2.6l-5.8-55.6-25.2 56.5c-.5 1.1-1.5 1.7-2.7 1.7s-2.2-.7-2.7-1.7l-25.2-56.5-5.8 55.6c-.2 1.6-1.6 2.8-3.2 2.6s-2.8-1.6-2.6-3.2l7-66.5c.1-1.3 1.1-2.4 2.5-2.6 1.3-.2 2.6.5 3.1 1.7l26.9 60.5 26.9-60.5c.5-1.2 1.8-1.9 3.1-1.7s2.3 1.3 2.5 2.6l7 66.5c.2 1.6-1 3.1-2.6 3.2z"/><path d="M197.4 97h-25.6c-1 0-1.8-.8-1.9-1.8l-2.5-23.5-10.7 24c-.3.7-1 1.2-1.8 1.2h-16.5c-.8 0-1.5-.5-1.8-1.2l-10.7-24-2.5 23.5c-.1 1-.9 1.8-1.9 1.8H95.9c-1.2 0-2.1-1-1.9-2.2l9.6-91.9c.1-1 .9-1.8 1.9-1.8h19.7c.8 0 1.5.5 1.8 1.2l19.6 44 19.6-44c.3-.7 1-1.2 1.8-1.2h19.7c1 0 1.8.8 1.9 1.8l9.7 92c.1 1.2-.8 2.2-1.9 2.2Zm-22.1-5.9H193l-8.8-84.2h-13.6l-23 51.7c-.3.8-1.4.8-1.8 0L122.7 7h-13.6l-8.8 84.2H118l4-38.1c.1-1 1.5-1.2 1.9-.3L141 91.2h11.4l17.1-38.4c.4-.9 1.8-.7 1.9.3l4 38.1Zm77.8 5.9c-26.4 0-47.9-21.5-47.9-47.9s21.4-48 47.9-48S301 22.6 301 49s-21.5 47.9-47.9 47.9Zm0-90C229.9 7 211 25.9 211 49.1s18.9 42.1 42.1 42.1 42.1-18.9 42.1-42.1S276.3 7 253.1 7"/><path d="M253.1 85.3c-20 0-36.2-16.2-36.2-36.2s16.2-36.2 36.2-36.2 36.2 16.2 36.2 36.2-16.2 36.2-36.2 36.2m0-66.6c-16.7 0-30.3 13.6-30.3 30.3s13.6 30.3 30.3 30.3 30.3-13.6 30.3-30.3-13.6-30.3-30.3-30.3"/><path d="M253.1 73.5c-13.5 0-24.5-11-24.5-24.5s11-24.5 24.5-24.5 24.5 11 24.5 24.5-11 24.5-24.5 24.5m0-43c-10.3 0-18.6 8.3-18.6 18.6s8.3 18.6 18.6 18.6 18.6-8.3 18.6-18.6-8.3-18.6-18.6-18.6M468 81.2l-25.5-66.5c-.4-1.1-1.5-1.9-2.7-1.9s-2.3.7-2.7 1.9l-25.5 66.5c-.6 1.5.2 3.2 1.7 3.8s3.2-.2 3.8-1.7l5.3-13.8h35l5.3 13.8c.4 1.2 1.6 1.9 2.7 1.9s.7 0 1.1-.2c1.5-.6 2.3-2.3 1.7-3.8Zm-43.6-17.6 15.3-39.8L455 63.6h-30.5Z"/><path d="M483.7 96.9h-27.3c-.8 0-1.5-.5-1.8-1.3l-5.5-14.4h-18.9l-5.5 14.4c-.3.8-1 1.3-1.8 1.3h-27.3c-1.4 0-2.3-1.4-1.8-2.7l35.3-91.9c.3-.8 1-1.3 1.8-1.3h17.5c.8 0 1.5.5 1.8 1.3l35.3 92c.5 1.3-.5 2.7-1.8 2.7ZM459.2 91h18.9L445.8 6.9h-12.1L401.4 91h18.9l5.8-15c.1-.4.5-.6.9-.6h25.6c.4 0 .8.2.9.6l5.8 15Z"/><path d="M445 57.8h-10.6c-.7 0-1.2-.7-.9-1.3l5.3-13.8c.3-.8 1.5-.8 1.8 0l5.3 13.8c.2.6-.2 1.3-.9 1.3M352.8 46h-16.3c-1.1 0-2-.9-2-2V26.4c0-1.1.9-2 2-2h16.6c6.3 0 11.3 5.4 10.7 11.8-.5 5.6-5.4 9.7-11 9.7Zm-12.4-5.9h12.5c2.6 0 4.8-1.9 5.1-4.4s-2-5.4-4.9-5.4h-12.7z"/><path d="M386.9 96.9h-28.3c-.7 0-1.4-.4-1.8-1.1L344 69.5h-3.5v25.4c0 1.1-.9 2-2 2h-25.4c-1.1 0-2-.9-2-2V3c0-1.1.9-2 2-2h39.5c9.3 0 18.4 3.8 25 10.5 6.5 6.6 10 15.2 9.9 24.2-.2 10.8-5.3 20.8-14 27.1L388.7 94c.6 1.3-.3 2.8-1.8 2.8ZM361 91h19.6l-14.4-29.5c-.2-.5 0-1 .4-1.3l1.5-.9c8.3-5.1 13.3-14 13.4-23.7.1-7.5-2.8-14.6-8.2-20-5.5-5.6-13.1-8.8-20.8-8.8h-35.6V91h17.6V64.6c0-.5.4-1 1-1H347c.4 0 .7.2.9.5L361 90.9ZM82.5 97H61.1c-1 0-1.8-.8-1.9-1.8l-.2-1.6C53.8 95.8 48.1 97 42.4 97c-11.6 0-22.8-4.9-30.8-13.4C3.6 75-.4 63.8.4 52c1.5-21.3 18.6-38.1 40-39.1 6.4-.3 12.8.9 18.6 3.4l.2-1.6c.1-1 .9-1.8 1.9-1.8h21.4c1.1 0 2 .9 2 2v80.2c0 1.1-.9 2-2 2Zm-17.9-5.9h14V18.7h-14L64 24c0 .7-.8 1.1-1.5.8l-2.6-1.4c-5.9-3.3-12.6-4.9-19.4-4.5-18.4.9-33.1 15.3-34.4 33.6-.7 10.2 2.7 19.8 9.7 27.3 6.8 7.3 16.5 11.5 26.5 11.5s12.3-1.6 17.6-4.6l2.6-1.4c.6-.3 1.4 0 1.5.8l.6 5.3Z"/><path d="M357.6 57.3c10.3-2.1 18.1-11.3 18-22.3-.1-12.4-10.6-22.3-23-22.3h-27.8c-1.1 0-2 .9-2 2v67.4c0 1.6 1.2 3 2.8 3.1s3.1-1.3 3.1-2.9V57.8h22.6l12.6 25.8c.5 1 1.6 1.6 2.6 1.6s1.1-.2 1.6-.5c1.3-.8 1.6-2.5 1-3.9zm-28.9-38.7h24c9.3 0 17.2 7.6 17.1 16.9-.2 9-7.6 16.4-16.6 16.4h-24.5z"/></g></svg>